<?xml version="1.0" encoding="UTF-8"?>
<!DOCTYPE svg PUBLIC "-//W3C//DTD SVG 1.1//EN" "http://www.w3.org/Graphics/SVG/1.1/DTD/svg11.dtd">
<!-- Creator: CorelDRAW -->
<svg xmlns="http://www.w3.org/2000/svg" xml:space="preserve" width="8.66666in" height="8.66666in" style="shape-rendering:geometricPrecision; text-rendering:geometricPrecision; image-rendering:optimizeQuality; fill-rule:evenodd; clip-rule:evenodd"
viewBox="0 0 8.66666 8.66666"
 xmlns:xlink="http://www.w3.org/1999/xlink">
 <defs>
  <style type="text/css">
   <![CDATA[
    .fil1 {fill:black}
    .fil0 {fill:black;fill-rule:nonzero}
   ]]>
  </style>
 </defs>
 <g id="Layer_x0020_1">
  <metadata id="CorelCorpID_0Corel-Layer"/>
  <path class="fil0" d="M1.85333 2.89879l4.96 0c0.0441811,0 0.08,0.0358189 0.08,0.08l0 3.24691c0,0.0441811 -0.0358189,0.08 -0.08,0.08l-4.96 0c-0.0441811,0 -0.08,-0.0358189 -0.08,-0.08l0 -3.24691c0,-0.0441811 0.0358189,-0.08 0.08,-0.08zm0.46811 2.49992c-0.0441811,0 -0.08,0.0358189 -0.08,0.08 0,0.0441811 0.0358189,0.08 0.08,0.08l4.02378 0c0.0441811,0 0.08,-0.0358189 0.08,-0.08 0,-0.0441811 -0.0358189,-0.08 -0.08,-0.08l-4.02378 0z"/>
  <path class="fil1" d="M3.52658 2.32763l1.6135 0c0.0625787,0 0.113331,0.050752 0.113331,0.113331l0 0.537831c0,0.0625787 -0.050752,0.113331 -0.113331,0.113331l-1.6135 0c-0.0625787,0 -0.113331,-0.050752 -0.113331,-0.113331l0 -0.537831c0,-0.0625787 0.050752,-0.113331 0.113331,-0.113331zm1.50017 0.226661l-1.38683 0 0 0.311169 1.38683 0 0 -0.311169z"/>
  <path class="fil0" d="M6.11646 2.67626c0,-0.0441811 -0.0358189,-0.08 -0.08,-0.08 -0.0441811,0 -0.08,0.0358189 -0.08,0.08l0 0.311244c0,0.0441811 0.0358189,0.08 0.08,0.08 0.0441811,0 0.08,-0.0358189 0.08,-0.08l0 -0.311244z"/>
  <path class="fil0" d="M2.7102 2.67128c0,-0.0441811 -0.0358189,-0.08 -0.08,-0.08 -0.0441811,0 -0.08,0.0358189 -0.08,0.08l0 0.311244c0,0.0441811 0.0358189,0.08 0.08,0.08 0.0441811,0 0.08,-0.0358189 0.08,-0.08l0 -0.311244z"/>
  <path class="fil1" d="M4.33333 0c2.39323,0 4.33333,1.9401 4.33333,4.33333 0,2.39323 -1.9401,4.33333 -4.33333,4.33333 -2.39323,0 -4.33333,-1.9401 -4.33333,-4.33333 0,-2.39323 1.9401,-4.33333 4.33333,-4.33333zm0 0.479996c2.12814,0 3.85333,1.7252 3.85333,3.85333 0,2.12814 -1.7252,3.85333 -3.85333,3.85333 -2.12814,0 -3.85333,-1.7252 -3.85333,-3.85333 0,-2.12814 1.7252,-3.85333 3.85333,-3.85333z"/>
 </g>
</svg>
